<mxfile host="app.diagrams.net" modified="2023-09-14T13:38:46.278Z" agent="Mozilla/5.0 (X11; Linux x86_64) AppleWebKit/537.36 (KHTML, like Gecko) Chrome/115.0.0.0 Safari/537.36" version="21.7.5" etag="rDbMu2b6BWlftGDcwWog" type="github">
  <diagram name="Page-1" id="dN54zUtNntbS1HDOxvKw">
    <mxGraphModel>
      <root>
        <mxCell id="0" />
        <mxCell id="1" parent="0" />
      </root>
    </mxGraphModel>
  </diagram>
</mxfile>
